<svg xmlns="http://www.w3.org/2000/svg" version="1.1" xmlns:xlink="http://www.w3.org/1999/xlink" xmlns:svgjs="http://svgjs.com/svgjs" width="512" height="512" x="0" y="0" viewBox="0 0 64 64" style="enable-background:new 0 0 512 512" xml:space="preserve" class=""><g><path d="M36.836 32.096 18.098 18.699A2.97 2.97 0 0 1 20 18h36a2.971 2.971 0 0 1 1.902.7L39.167 32.092a2.03 2.03 0 0 1-2.331.003zM43.873 31.187l15.068-10.772A3 3 0 0 1 59 21v20a2.964 2.964 0 0 1-.315 1.313c-2.707-2.087-7.24-5.483-14.812-11.126z" fill="#176527" data-original="#000000" class=""></path><path d="M18.654 43.666c3.903-3.107 10.193-7.997 14.787-11.54l2.237 1.6a4.037 4.037 0 0 0 4.649-.003l1.838-1.314c4.893 3.648 11.138 8.332 15.058 11.324A2.972 2.972 0 0 1 56 44H20a2.962 2.962 0 0 1-1.346-.334zM17.256 42.203A2.975 2.975 0 0 1 17 41V21a2.998 2.998 0 0 1 .06-.585L31.74 30.912c-7.385 5.695-11.829 9.155-14.485 11.291z" fill="#176527" data-original="#000000" class=""></path><path d="M43 46v4a2.002 2.002 0 0 1-2 2H11a2.002 2.002 0 0 1-2-2V12a2.002 2.002 0 0 1 2-2h30a2.002 2.002 0 0 1 2 2v4h4V5a3.003 3.003 0 0 0-3-3H8a3.003 3.003 0 0 0-3 3v54a3.003 3.003 0 0 0 3 3h36a3.003 3.003 0 0 0 3-3V46zM26 4a2 2 0 1 1-2 2 2 2 0 0 1 2-2zm0 56a3 3 0 1 1 3-3 3.003 3.003 0 0 1-3 3z" fill="#176527" data-original="#000000" class=""></path></g></svg>